# xmcd
#
# Track frame offsets:
#	150
#	15222
#	35442
#	51732
#	65190
#	84372
#	102787
#	119890
#	137290
#	158835
#	174557
#	190352
#
# Disc length: 2740 seconds
#
# Revision: 1
# Processed by: cddbd v1.5.1PL0 Copyright (c) Steve Scherf et al.
# Submitted via: audiograbber 1.80
#
DISCID=a20ab20c
DTITLE=Nørmølle - Kvart I Blå
DYEAR=1900
DGENRE=
TTITLE0=Skal Vi Absolut Danse
TTITLE1=Gademusikanten
TTITLE2=Solskin Undervejs
TTITLE3=La' Mig Lig' La' Mig Være
TTITLE4=Han Ventede
TTITLE5=På Kanten
TTITLE6=Den Forgabte Søn
TTITLE7=På En Regnvejrsdag
TTITLE8=Så Mørkeblå En Blues
TTITLE9=Peel Hajløs
TTITLE10=Tordenkalven
TTITLE11=Hvis Man R T D
EXTD=
EXTT0=
EXTT1=
EXTT2=
EXTT3=
EXTT4=
EXTT5=
EXTT6=
EXTT7=
EXTT8=
EXTT9=
EXTT10=
EXTT11=
PLAYORDER=
